<svg xmlns="http://www.w3.org/2000/svg" xmlns:xlink="http://www.w3.org/1999/xlink" width="500" zoomAndPan="magnify" viewBox="0 0 375 374.999991" height="500" preserveAspectRatio="xMidYMid meet" version="1.0"><defs><clipPath id="de806b3ad6"><path d="M 0 34 L 375 34 L 375 337.21875 L 0 337.21875 Z M 0 34 " clip-rule="nonzero"/></clipPath></defs><path fill="#ffdf9f" d="M 85.101562 217.101562 C 90.292969 216.792969 95.613281 214.886719 100.910156 211.433594 C 105.234375 208.617188 107.582031 205.578125 107.886719 202.414062 C 108.140625 199.828125 106.953125 197.007812 104.722656 194.878906 C 102.890625 193.121094 100.351562 191.761719 96.972656 190.722656 C 93.632812 189.691406 89.566406 189.066406 85.347656 189.066406 C 79.1875 189.066406 72.71875 190.410156 67.753906 193.816406 C 65.863281 195.105469 64.808594 197.023438 64.609375 199.511719 C 64.246094 204.109375 66.957031 209.347656 69.695312 211.945312 C 73.523438 215.582031 79.132812 217.449219 85.09375 217.109375 Z M 85.101562 217.101562 " fill-opacity="1" fill-rule="nonzero"/><path fill="#ffdf9f" d="M 109.84375 198.527344 C 109.371094 197.984375 108.925781 197.429688 108.507812 196.855469 C 108.789062 197.398438 109.027344 197.964844 109.21875 198.527344 Z M 109.84375 198.527344 " fill-opacity="1" fill-rule="nonzero"/><path fill="#efca8b" d="M 325.890625 102.523438 C 326.109375 69.40625 317.472656 42.558594 304.960938 38.121094 C 292.574219 33.722656 276.023438 48.199219 272.066406 51.910156 C 297.289062 64.992188 315.496094 87.160156 325.882812 102.53125 Z M 325.890625 102.523438 " fill-opacity="1" fill-rule="nonzero"/><path fill="#efca8b" d="M 112.351562 198.527344 L 205.246094 198.527344 C 205.761719 198.527344 206.171875 198.941406 206.171875 199.453125 L 206.171875 214.914062 C 219.480469 215.015625 228.917969 214.703125 229.011719 214.703125 C 229.875 214.726562 309.875 217.269531 337.101562 204.5 C 344.746094 200.917969 349.789062 195.238281 352.089844 187.625 C 358.910156 165.050781 340.695312 130.023438 329.230469 111.152344 C 316.769531 90.652344 282.054688 42.945312 229.042969 42.945312 C 176.027344 42.945312 141.320312 90.644531 128.851562 111.152344 C 114.253906 135.175781 92.691406 178.476562 112.328125 198.496094 C 112.335938 198.503906 112.34375 198.519531 112.351562 198.527344 Z M 112.351562 198.527344 " fill-opacity="1" fill-rule="nonzero"/><path fill="#efca8b" d="M 185.878906 51.972656 C 182.066406 48.382812 165.386719 33.683594 152.914062 38.113281 C 140.371094 42.566406 131.71875 69.558594 131.996094 102.816406 C 142.335938 87.464844 160.566406 65.144531 185.878906 51.972656 Z M 185.878906 51.972656 " fill-opacity="1" fill-rule="nonzero"/><path fill="#bfa680" d="M 204.316406 200.375 L 109.667969 200.375 C 109.773438 201.117188 109.804688 201.859375 109.738281 202.589844 C 109.378906 206.339844 106.75 209.835938 101.925781 212.984375 C 96.355469 216.609375 90.734375 218.621094 85.21875 218.949219 C 84.707031 218.976562 84.199219 218.992188 83.695312 218.992188 C 77.796875 218.992188 72.300781 216.953125 68.433594 213.28125 C 65.511719 210.507812 62.753906 205.316406 62.746094 200.382812 L 2.832031 200.382812 L 2.832031 319.480469 L 204.316406 319.480469 Z M 204.316406 200.375 " fill-opacity="1" fill-rule="nonzero"/><path fill="#efca8b" d="M 357.515625 210.714844 C 350.996094 209.761719 343.957031 212.203125 339.144531 217.101562 C 334.6875 221.628906 332.148438 228.226562 332.257812 234.871094 C 342.980469 254.554688 354.660156 282.648438 348.996094 304.136719 C 348.878906 304.566406 348.75 304.984375 348.605469 305.398438 C 355.4375 306.015625 361.398438 300.089844 363.304688 293.792969 C 365.34375 287.019531 363.960938 279.535156 362.15625 272.457031 C 361.957031 271.660156 361.75 270.867188 361.546875 270.082031 C 359.886719 263.6875 358.167969 257.082031 358.753906 250.386719 C 359.375 243.375 361.851562 240.71875 366.550781 236.265625 C 369.90625 233.082031 371.621094 229.730469 371.773438 226.027344 C 372.132812 217.503906 364.695312 211.792969 357.515625 210.730469 Z M 357.515625 210.714844 " fill-opacity="1" fill-rule="nonzero"/><path fill="#efca8b" d="M 330.421875 235.65625 C 330.421875 235.65625 330.421875 235.601562 330.421875 235.578125 C 323.34375 222.542969 316.742188 213.242188 316.050781 212.273438 C 294.148438 216.085938 265.683594 216.800781 247.347656 216.800781 C 237.050781 216.800781 229.957031 216.574219 229.011719 216.542969 C 228.972656 216.542969 219.511719 216.855469 206.171875 216.765625 L 206.171875 319.472656 L 229.660156 319.472656 C 238.136719 319.472656 245.078125 326.125 245.566406 334.46875 C 255.121094 334.324219 339.6875 332.238281 347.214844 303.65625 C 352.601562 283.199219 341.335938 255.839844 330.859375 236.382812 C 330.613281 236.222656 330.4375 235.960938 330.421875 235.65625 Z M 330.421875 235.65625 " fill-opacity="1" fill-rule="nonzero"/><path fill="#a88d6a" d="M 229.652344 321.320312 L 2.859375 321.320312 C 3.34375 328.660156 9.464844 334.476562 16.925781 334.476562 L 243.722656 334.476562 C 243.242188 327.140625 237.121094 321.320312 229.660156 321.320312 Z M 229.652344 321.320312 " fill-opacity="1" fill-rule="nonzero"/><path fill="#ffffff" d="M 117.792969 259.925781 C 117.792969 260.855469 117.703125 261.78125 117.519531 262.695312 C 117.335938 263.613281 117.066406 264.5 116.710938 265.363281 C 116.351562 266.222656 115.914062 267.042969 115.394531 267.820312 C 114.878906 268.59375 114.289062 269.3125 113.628906 269.972656 C 112.964844 270.632812 112.25 271.222656 111.472656 271.742188 C 110.695312 272.257812 109.875 272.695312 109.011719 273.054688 C 108.148438 273.410156 107.261719 273.679688 106.34375 273.863281 C 105.429688 274.042969 104.503906 274.136719 103.570312 274.136719 C 102.636719 274.136719 101.710938 274.042969 100.792969 273.863281 C 99.878906 273.679688 98.988281 273.410156 98.125 273.054688 C 97.261719 272.695312 96.441406 272.257812 95.667969 271.742188 C 94.890625 271.222656 94.171875 270.632812 93.511719 269.972656 C 92.851562 269.3125 92.261719 268.59375 91.742188 267.820312 C 91.222656 267.042969 90.785156 266.222656 90.425781 265.363281 C 90.070312 264.5 89.800781 263.613281 89.617188 262.695312 C 89.4375 261.78125 89.34375 260.855469 89.34375 259.925781 C 89.34375 258.992188 89.4375 258.066406 89.617188 257.152344 C 89.800781 256.238281 90.070312 255.347656 90.425781 254.484375 C 90.785156 253.625 91.222656 252.804688 91.742188 252.027344 C 92.261719 251.253906 92.851562 250.535156 93.511719 249.875 C 94.171875 249.214844 94.890625 248.625 95.667969 248.109375 C 96.441406 247.589844 97.261719 247.152344 98.125 246.792969 C 98.988281 246.4375 99.878906 246.167969 100.792969 245.984375 C 101.710938 245.804688 102.636719 245.714844 103.570312 245.714844 C 104.503906 245.714844 105.429688 245.804688 106.34375 245.984375 C 107.261719 246.167969 108.148438 246.4375 109.011719 246.792969 C 109.875 247.152344 110.695312 247.589844 111.472656 248.109375 C 112.25 248.625 112.964844 249.214844 113.628906 249.875 C 114.289062 250.535156 114.878906 251.253906 115.394531 252.027344 C 115.914062 252.804688 116.351562 253.625 116.710938 254.484375 C 117.066406 255.347656 117.335938 256.238281 117.519531 257.152344 C 117.703125 258.066406 117.792969 258.992188 117.792969 259.925781 Z M 117.792969 259.925781 " fill-opacity="1" fill-rule="nonzero"/><path fill="#bfa680" d="M 329.230469 111.152344 C 319.636719 95.371094 296.867188 63.488281 262.71875 49.628906 C 254.265625 56.972656 256.933594 73.019531 270.71875 78.660156 C 274.488281 80.203125 278.777344 80.699219 282.007812 83.175781 C 291.863281 90.695312 284.546875 109.128906 293.980469 117.171875 C 301.203125 123.332031 312.492188 118.652344 321.617188 121.28125 C 324.988281 122.25 328.191406 124.257812 331.691406 124.058594 C 333.195312 123.976562 334.601562 123.457031 335.847656 122.660156 C 333.546875 118.421875 331.285156 114.527344 329.238281 111.160156 Z M 329.230469 111.152344 " fill-opacity="1" fill-rule="nonzero"/><path fill="#bfa680" d="M 128.851562 111.152344 C 122.929688 120.898438 115.859375 133.820312 110.859375 147.074219 C 116.257812 148.410156 122.339844 147.21875 126.039062 143.011719 C 131.855469 136.40625 132.199219 124.722656 140.449219 121.636719 C 144.125 120.265625 148.207031 121.210938 152.132812 121.113281 C 162.324219 120.84375 171.65625 112.359375 172.878906 102.25 C 173.75 95.042969 171.136719 86.910156 175.292969 80.953125 C 180.535156 73.460938 192.148438 73.828125 195.703125 64.472656 C 197.621094 59.417969 196.257812 54.492188 193.308594 50.5 C 160.296875 64.769531 138.246094 95.699219 128.84375 111.160156 Z M 128.851562 111.152344 " fill-opacity="1" fill-rule="nonzero"/><path fill="#efe0ca" d="M 346.863281 192.671875 C 334.175781 193.871094 320.285156 190.167969 312.414062 180.148438 C 307.898438 174.40625 304.726562 166.320312 297.578125 164.785156 C 293.964844 164.003906 290.171875 165.226562 286.511719 164.667969 C 275.445312 162.980469 272.242188 147.304688 261.953125 142.90625 C 254.953125 139.914062 255.097656 143.378906 247.683594 141.613281 C 243.992188 140.738281 239.3125 136.925781 235.476562 132.335938 C 230.738281 126.679688 222.238281 126.242188 216.820312 131.261719 C 211.890625 135.820312 206.417969 139.582031 201.921875 140.210938 C 197.199219 140.867188 191.726562 140.699219 188.59375 144.289062 C 186.882812 146.242188 186.308594 148.90625 185.574219 151.40625 C 179.765625 171.214844 159.113281 185.570312 138.507812 184.132812 C 132.742188 183.730469 126.957031 182.238281 121.261719 183.195312 C 116.425781 184.003906 112.007812 186.539062 107.535156 188.289062 L 106.785156 189.9375 C 108.046875 193.097656 109.859375 195.984375 112.328125 198.496094 C 112.335938 198.503906 112.34375 198.519531 112.351562 198.527344 L 205.246094 198.527344 C 205.761719 198.527344 206.171875 198.941406 206.171875 199.453125 L 206.171875 214.914062 C 219.480469 215.015625 228.917969 214.703125 229.011719 214.703125 C 229.875 214.726562 309.875 217.269531 337.101562 204.5 C 343.109375 201.683594 347.496094 197.574219 350.226562 192.25 C 349.109375 192.417969 347.992188 192.570312 346.863281 192.679688 Z M 346.863281 192.671875 " fill-opacity="1" fill-rule="nonzero"/><path fill="#ef9a6f" d="M 306.796875 77.769531 L 307.019531 78.753906 C 306.742188 70.675781 306.238281 61.945312 301.109375 55.691406 C 300.007812 54.339844 298.632812 53.109375 296.953125 52.675781 C 294.925781 52.15625 292.785156 52.867188 290.921875 53.820312 C 288.734375 54.933594 286.726562 56.378906 284.96875 58.089844 C 290.316406 62.625 295.753906 68.429688 301.101562 72.964844 C 303.066406 74.628906 306.238281 75.261719 306.796875 77.777344 Z M 306.796875 77.769531 " fill-opacity="1" fill-rule="nonzero"/><path fill="#ef9a6f" d="M 152.953125 77.769531 L 152.730469 78.753906 C 153.003906 70.675781 153.511719 61.945312 158.640625 55.691406 C 159.738281 54.339844 161.117188 53.109375 162.796875 52.675781 C 164.824219 52.15625 166.960938 52.867188 168.828125 53.820312 C 171.011719 54.933594 173.023438 56.378906 174.78125 58.089844 C 169.429688 62.625 163.996094 68.429688 158.648438 72.964844 C 156.683594 74.628906 153.511719 75.261719 152.953125 77.777344 Z M 152.953125 77.769531 " fill-opacity="1" fill-rule="nonzero"/><path fill="#efe0ca" d="M 241.980469 302.023438 C 262.367188 292.097656 273.34375 272.53125 274.351562 251.042969 C 274.601562 245.613281 274.226562 240.0625 273.195312 234.519531 C 272.125 228.722656 270.71875 222.382812 268.449219 216.472656 C 260.699219 216.71875 253.453125 216.800781 247.339844 216.800781 C 237.042969 216.800781 229.949219 216.574219 229.003906 216.542969 C 228.964844 216.542969 219.503906 216.855469 206.164062 216.765625 L 206.164062 308.382812 C 218.28125 309.933594 231.050781 307.351562 241.980469 302.03125 Z M 241.980469 302.023438 " fill-opacity="1" fill-rule="nonzero"/><path fill="#bfa680" d="M 330.859375 236.382812 C 330.613281 236.222656 330.4375 235.960938 330.421875 235.65625 C 330.421875 235.632812 330.421875 235.601562 330.421875 235.578125 C 323.34375 222.542969 316.742188 213.242188 316.050781 212.273438 C 311.964844 212.984375 307.644531 213.585938 303.210938 214.097656 C 300.835938 216.792969 300.191406 220.316406 302.617188 223.851562 C 305.839844 228.546875 312.566406 228.539062 315.890625 233.082031 C 319.308594 237.757812 316.527344 244.507812 312.492188 248.652344 C 310.402344 250.796875 307.773438 253.335938 308.53125 256.234375 C 309.160156 258.625 311.910156 259.832031 314.378906 259.953125 C 316.847656 260.078125 319.332031 259.457031 321.792969 259.765625 C 324.246094 260.070312 326.851562 261.773438 326.921875 264.238281 C 326.960938 265.542969 326.273438 266.835938 326.5 268.125 C 326.785156 269.707031 328.402344 270.769531 330.007812 270.929688 C 331.605469 271.089844 333.1875 270.546875 334.695312 269.988281 C 337.835938 268.828125 340.96875 267.539062 343.757812 265.703125 C 340.320312 255.234375 335.511719 245.027344 330.859375 236.382812 Z M 330.859375 236.382812 " fill-opacity="1" fill-rule="nonzero"/><path fill="#bfa680" d="M 357.515625 210.714844 C 350.996094 209.761719 343.957031 212.203125 339.144531 217.101562 C 334.6875 221.628906 332.148438 228.226562 332.257812 234.871094 C 333.929688 237.9375 335.628906 241.214844 337.277344 244.636719 C 342.628906 248.324219 349.0625 251.1875 354.40625 252.425781 C 355.789062 252.746094 357.210938 252.953125 358.640625 253.050781 C 358.640625 252.15625 358.679688 251.265625 358.753906 250.363281 C 359.375 243.351562 361.851562 240.695312 366.550781 236.242188 C 369.90625 233.058594 371.621094 229.707031 371.773438 226.003906 C 372.132812 217.480469 364.695312 211.769531 357.515625 210.707031 Z M 357.515625 210.714844 " fill-opacity="1" fill-rule="nonzero"/><path fill="#bfa680" d="M 361.546875 270.066406 C 360.675781 266.710938 359.789062 263.292969 359.230469 259.839844 C 353.007812 259.871094 346.792969 257.9375 341.65625 254.425781 C 343.746094 259.488281 345.625 264.726562 347.101562 270.003906 C 351.832031 271.257812 356.867188 271.386719 361.5625 270.148438 L 361.539062 270.074219 Z M 361.546875 270.066406 " fill-opacity="1" fill-rule="nonzero"/><path fill="#bfa680" d="M 347.207031 303.65625 C 347.757812 301.574219 348.125 299.417969 348.34375 297.210938 C 348.148438 297.394531 347.949219 297.570312 347.726562 297.722656 C 345.144531 299.488281 341.550781 298.226562 339.066406 296.320312 C 336.589844 294.410156 334.488281 291.867188 331.554688 290.773438 C 326.410156 288.867188 320.019531 293.15625 319.835938 298.632812 C 319.757812 300.929688 320.59375 303.152344 320.953125 305.421875 C 321.3125 307.6875 321.058594 310.316406 319.308594 311.8125 C 317.574219 313.292969 315.042969 313.140625 312.765625 313.308594 C 309.265625 313.5625 305.71875 314.835938 303.355469 317.425781 C 300.996094 320.015625 300.085938 324.0625 301.722656 327.160156 C 301.964844 327.636719 302.171875 328.175781 302.363281 328.742188 C 323.765625 324.429688 343.722656 316.882812 347.207031 303.664062 Z M 347.207031 303.65625 " fill-opacity="1" fill-rule="nonzero"/><path fill="#a88d6a" d="M 11.328125 199.332031 L 11.328125 309.53125 L 206.164062 309.53125 L 206.164062 321.320312 L 2.859375 321.320312 L 2.832031 200.375 Z M 11.328125 199.332031 " fill-opacity="1" fill-rule="nonzero"/><path fill="#93613f" d="M 186.085938 175.710938 C 196.023438 173.09375 199.53125 172.472656 199.53125 163.714844 C 199.53125 151.511719 193.515625 141.613281 186.085938 141.613281 C 178.65625 141.613281 172.640625 151.511719 172.640625 163.714844 C 172.640625 175.917969 178.910156 177.605469 186.085938 175.710938 Z M 186.085938 175.710938 " fill-opacity="1" fill-rule="nonzero"/><path fill="#93613f" d="M 270.269531 175.710938 C 277.445312 177.605469 283.714844 175.925781 283.714844 163.714844 C 283.714844 151.503906 277.699219 141.613281 270.269531 141.613281 C 262.839844 141.613281 256.824219 151.511719 256.824219 163.714844 C 256.824219 172.472656 260.332031 173.085938 270.269531 175.710938 Z M 270.269531 175.710938 " fill-opacity="1" fill-rule="nonzero"/><path fill="#93613f" d="M 302.203125 283.503906 C 299.214844 285.421875 295.78125 286.589844 292.441406 286.574219 C 289.140625 286.558594 285.746094 285.375 283.332031 283.222656 C 282.101562 282.160156 281.183594 280.878906 280.542969 279.390625 C 279.890625 277.90625 279.554688 276.21875 279.425781 274.449219 C 279.179688 270.90625 279.769531 267.035156 280.234375 263.207031 C 281.238281 255.546875 282.789062 247.957031 284.449219 240.222656 C 280.640625 247.171875 278.066406 254.769531 276.414062 262.550781 C 276 264.507812 275.636719 266.445312 275.359375 268.445312 C 275.078125 270.445312 274.878906 272.515625 274.925781 274.664062 C 274.992188 276.800781 275.277344 279.039062 276.125 281.183594 C 276.957031 283.320312 278.316406 285.351562 280.039062 286.878906 C 283.453125 290.003906 287.980469 291.554688 292.496094 291.492188 C 297.035156 291.425781 301.246094 289.652344 304.710938 287.179688 C 308.195312 284.6875 311.023438 281.390625 312.902344 277.730469 C 313.84375 275.898438 314.601562 273.996094 315.136719 272.042969 C 315.699219 270.101562 316.046875 268.109375 316.191406 266.101562 C 314.066406 269.53125 312.148438 272.875 309.90625 275.882812 C 307.675781 278.878906 305.230469 281.605469 302.203125 283.527344 Z M 302.203125 283.503906 " fill-opacity="1" fill-rule="nonzero"/><g clip-path="url(#de806b3ad6)"><path fill="#93613f" d="M 357.921875 207.96875 C 350.539062 206.882812 342.582031 209.632812 337.164062 215.144531 C 333.539062 218.824219 331.054688 223.734375 330.015625 228.980469 C 325.597656 221.332031 321.671875 215.464844 319.636719 212.539062 C 326.953125 211.113281 333.394531 209.304688 338.285156 207.003906 C 346.679688 203.070312 352.21875 196.816406 354.757812 188.417969 C 361.890625 164.8125 343.316406 128.96875 331.605469 109.703125 C 330.726562 108.253906 329.734375 106.671875 328.640625 104.984375 C 329.34375 69.039062 320.027344 40.503906 305.902344 35.492188 C 291.855469 30.515625 274.359375 45.910156 270.148438 49.894531 C 257.988281 43.960938 244.257812 40.167969 229.050781 40.167969 C 213.839844 40.167969 200.011719 43.992188 187.8125 49.964844 C 183.722656 46.085938 166.113281 30.492188 151.988281 35.5 C 137.820312 40.527344 128.484375 69.207031 129.25 105.296875 C 128.234375 106.871094 127.308594 108.351562 126.476562 109.710938 C 113.421875 131.199219 95.039062 167.753906 104.226562 190.96875 C 102.445312 189.808594 100.328125 188.84375 97.796875 188.058594 C 88.671875 185.242188 75.359375 185.21875 66.1875 191.511719 C 64.0625 192.96875 62.683594 195.054688 62.113281 197.597656 L 1.898438 197.597656 C 0.875 197.597656 0.046875 198.429688 0.046875 199.445312 L 0.046875 320.386719 C 0.046875 329.6875 7.621094 337.25 16.925781 337.25 L 244.6875 337.25 C 248.46875 337.234375 333.914062 336.59375 348.421875 308.164062 C 348.8125 308.191406 349.195312 308.214844 349.574219 308.214844 C 357.304688 308.214844 363.855469 301.585938 365.964844 294.570312 C 368.203125 287.148438 366.75 279.214844 364.855469 271.746094 C 364.648438 270.949219 364.441406 270.148438 364.234375 269.355469 C 362.628906 263.191406 360.980469 256.816406 361.53125 250.601562 C 362.066406 244.558594 364.042969 242.453125 368.46875 238.253906 C 372.375 234.546875 374.371094 230.578125 374.554688 226.109375 C 374.976562 215.96875 366.300781 209.1875 357.921875 207.960938 Z M 304.65625 38.992188 C 316.234375 43.097656 324.628906 68.621094 324.957031 99.53125 C 314.449219 84.496094 297.136719 64.242188 273.664062 51.707031 C 278.753906 47.117188 293.550781 35.050781 304.65625 38.992188 Z M 153.226562 38.992188 C 164.378906 35.035156 179.277344 47.238281 184.296875 51.773438 C 160.734375 64.398438 143.398438 84.785156 132.925781 99.828125 C 133.210938 68.78125 141.617188 43.113281 153.226562 39 Z M 129.648438 111.636719 C 142.03125 91.261719 176.5 43.871094 229.042969 43.871094 C 281.582031 43.871094 316.050781 91.261719 328.433594 111.636719 C 339.824219 130.375 357.921875 165.128906 351.203125 187.355469 C 348.980469 194.710938 344.101562 200.191406 336.710938 203.660156 C 309.6875 216.335938 229.90625 213.800781 229.101562 213.769531 C 229.0625 213.769531 229.019531 213.769531 228.980469 213.769531 C 228.886719 213.769531 219.890625 214.074219 207.097656 213.992188 L 207.097656 199.453125 C 207.097656 198.429688 206.265625 197.605469 205.246094 197.605469 L 112.765625 197.605469 C 93.976562 177.917969 115.246094 135.339844 129.648438 111.636719 Z M 68.289062 194.574219 C 73.085938 191.28125 79.363281 189.984375 85.339844 189.984375 C 89.460938 189.984375 93.449219 190.601562 96.714844 191.609375 C 99.945312 192.609375 102.359375 193.902344 104.097656 195.550781 C 106.121094 197.480469 107.199219 200.015625 106.976562 202.332031 C 106.703125 205.203125 104.492188 208.003906 100.414062 210.664062 C 95.253906 214.023438 90.085938 215.886719 85.058594 216.183594 C 79.355469 216.527344 73.996094 214.734375 70.351562 211.273438 C 67.777344 208.820312 65.214844 203.898438 65.558594 199.589844 C 65.734375 197.390625 66.652344 195.710938 68.304688 194.582031 Z M 3.753906 201.300781 L 61.84375 201.300781 C 62.164062 206.210938 64.902344 211.203125 67.789062 213.945312 C 71.835938 217.78125 77.558594 219.917969 83.695312 219.917969 C 84.214844 219.917969 84.742188 219.902344 85.269531 219.871094 C 90.949219 219.535156 96.726562 217.480469 102.4375 213.753906 C 107.503906 210.449219 110.28125 206.722656 110.667969 202.675781 C 110.714844 202.214844 110.722656 201.757812 110.699219 201.300781 L 203.398438 201.300781 L 203.398438 318.546875 L 3.753906 318.546875 Z M 16.925781 333.554688 C 10.289062 333.554688 4.785156 328.628906 3.886719 322.242188 L 229.652344 322.242188 C 236.289062 322.242188 241.789062 327.167969 242.691406 333.554688 Z M 268.441406 332.394531 C 266.449219 331.859375 264.683594 331.054688 263.519531 329.84375 C 262.351562 328.582031 261.632812 326.871094 261.28125 324.808594 C 261.089844 323.785156 260.953125 322.71875 260.867188 321.601562 C 260.777344 320.441406 260.675781 319.234375 260.570312 318.113281 C 260.355469 315.835938 260.300781 313.683594 260.570312 311.699219 C 260.820312 309.757812 261.609375 307.855469 262.710938 306.167969 C 263.804688 304.480469 265.230469 303.015625 266.945312 301.992188 C 270.261719 299.929688 275.183594 299.730469 279.042969 302.609375 C 277.929688 300.457031 275.679688 298.816406 273.179688 298.113281 C 271.929688 297.730469 270.589844 297.585938 269.246094 297.664062 C 267.898438 297.714844 266.53125 298.035156 265.269531 298.539062 C 262.734375 299.5625 260.554688 301.34375 258.941406 303.496094 C 257.34375 305.644531 256.175781 308.164062 255.664062 310.867188 C 255.152344 313.539062 255.304688 316.121094 255.464844 318.523438 C 255.546875 319.738281 255.679688 320.878906 255.792969 322.0625 C 255.90625 323.289062 256.089844 324.558594 256.367188 325.832031 C 256.648438 327.109375 257.085938 328.429688 257.726562 329.703125 C 258.316406 330.894531 259.148438 332.027344 260.171875 332.964844 C 253.78125 333.347656 248.867188 333.476562 246.40625 333.53125 C 245.464844 325.113281 238.3125 318.546875 229.636719 318.546875 L 207.074219 318.546875 L 207.074219 217.695312 C 219.371094 217.773438 228.191406 217.496094 229.019531 217.472656 C 230.179688 217.511719 237.171875 217.734375 247.246094 217.734375 C 265.4375 217.734375 293.648438 217.023438 315.601562 213.28125 C 317.136719 215.464844 323.113281 224.132812 329.496094 235.855469 C 329.558594 236.320312 329.789062 236.726562 330.125 237.015625 C 340.496094 256.3125 351.585938 283.3125 346.289062 303.429688 C 341.039062 323.359375 296.785156 330.109375 268.417969 332.394531 Z M 365.917969 235.578125 C 361.1875 240.0625 358.480469 242.957031 357.839844 250.289062 C 357.234375 257.144531 358.96875 263.832031 360.652344 270.300781 C 360.859375 271.097656 361.0625 271.882812 361.261719 272.675781 C 363.027344 279.625 364.390625 286.957031 362.417969 293.523438 C 360.773438 298.96875 355.667969 304.3125 349.851562 304.511719 C 349.867188 304.464844 349.882812 304.421875 349.890625 304.375 C 355.597656 282.695312 343.933594 254.464844 333.171875 234.640625 C 333.128906 228.308594 335.566406 222.054688 339.800781 217.75 C 344.410156 213.058594 351.144531 210.714844 357.378906 211.632812 C 364.160156 212.625 371.183594 217.992188 370.847656 225.972656 C 370.703125 229.433594 369.089844 232.570312 365.917969 235.578125 Z M 365.917969 235.578125 " fill-opacity="1" fill-rule="nonzero"/></g><path fill="#93613f" d="M 300.84375 169.304688 L 332.546875 158.902344 C 332.652344 158.867188 332.722656 158.757812 332.691406 158.644531 C 332.660156 158.523438 332.546875 158.445312 332.425781 158.476562 L 299.855469 165.730469 C 299.796875 165.746094 299.742188 165.761719 299.679688 165.777344 C 298.710938 166.097656 298.175781 167.144531 298.496094 168.113281 C 298.816406 169.082031 299.863281 169.617188 300.835938 169.296875 Z M 300.84375 169.304688 " fill-opacity="1" fill-rule="nonzero"/><path fill="#93613f" d="M 324.183594 174.824219 L 303.355469 176.285156 C 303.28125 176.285156 303.1875 176.300781 303.105469 176.320312 C 302.105469 176.527344 301.453125 177.511719 301.667969 178.519531 C 301.875 179.523438 302.859375 180.171875 303.871094 179.957031 L 324.308594 175.679688 C 324.515625 175.632812 324.667969 175.445312 324.652344 175.230469 C 324.636719 174.992188 324.429688 174.808594 324.191406 174.832031 Z M 324.183594 174.824219 " fill-opacity="1" fill-rule="nonzero"/><path fill="#93613f" d="M 315.136719 189.671875 L 303.984375 186.011719 C 303.855469 185.964844 303.699219 185.9375 303.554688 185.929688 C 302.53125 185.84375 301.628906 186.609375 301.546875 187.632812 C 301.460938 188.65625 302.226562 189.554688 303.25 189.640625 L 314.945312 190.601562 C 315.160156 190.617188 315.371094 190.488281 315.441406 190.273438 C 315.523438 190.023438 315.386719 189.753906 315.136719 189.671875 Z M 315.136719 189.671875 " fill-opacity="1" fill-rule="nonzero"/><path fill="#93613f" d="M 123.601562 159.667969 L 155.511719 169.3125 C 155.511719 169.3125 155.574219 169.328125 155.605469 169.335938 C 156.597656 169.578125 157.605469 168.976562 157.851562 167.984375 C 158.097656 166.992188 157.492188 165.984375 156.5 165.738281 L 124.136719 157.726562 C 123.617188 157.597656 123.082031 157.894531 122.929688 158.414062 C 122.769531 158.949219 123.066406 159.507812 123.601562 159.667969 Z M 123.601562 159.667969 " fill-opacity="1" fill-rule="nonzero"/><path fill="#93613f" d="M 152.640625 179.972656 C 153.65625 180.070312 154.566406 179.324219 154.664062 178.308594 C 154.765625 177.292969 154.015625 176.382812 153 176.285156 L 132.246094 174.289062 C 131.75 174.246094 131.285156 174.589844 131.191406 175.085938 C 131.09375 175.613281 131.445312 176.125 131.972656 176.214844 L 152.476562 179.949219 C 152.53125 179.957031 152.585938 179.964844 152.632812 179.972656 Z M 152.640625 179.972656 " fill-opacity="1" fill-rule="nonzero"/><path fill="#93613f" d="M 152.363281 186.011719 L 141.265625 189.921875 C 141.175781 189.953125 141.113281 190.042969 141.121094 190.144531 C 141.121094 190.265625 141.234375 190.359375 141.355469 190.351562 L 153.105469 189.640625 C 153.273438 189.632812 153.449219 189.59375 153.617188 189.539062 C 154.59375 189.195312 155.101562 188.128906 154.765625 187.15625 C 154.417969 186.179688 153.351562 185.675781 152.378906 186.011719 Z M 152.363281 186.011719 " fill-opacity="1" fill-rule="nonzero"/><path fill="#93613f" d="M 220.039062 175.144531 C 223.238281 175.046875 226.40625 173.800781 228.902344 171.648438 C 229.957031 172.511719 231.121094 173.207031 232.328125 173.710938 C 234.148438 174.464844 236.074219 174.855469 238 174.863281 C 241.882812 174.871094 245.574219 173.160156 247.996094 170.402344 C 248.132812 170.242188 248.140625 170 247.996094 169.839844 C 247.84375 169.664062 247.570312 169.640625 247.394531 169.800781 C 244.816406 172.039062 241.316406 173.03125 238.144531 172.585938 C 235.429688 172.214844 232.863281 170.890625 231.160156 169.007812 C 234.277344 168.257812 236.5625 165.851562 236.5625 162.996094 C 236.5625 159.546875 233.214844 161.882812 229.09375 161.882812 C 224.976562 161.882812 221.628906 159.546875 221.628906 162.996094 C 221.628906 165.738281 223.746094 168.066406 226.679688 168.90625 C 224.984375 170.847656 222.507812 172.238281 219.839844 172.609375 C 216.75 173.054688 213.363281 172.152344 210.820312 170.074219 C 210.550781 169.863281 210.164062 169.871094 209.910156 170.113281 C 209.644531 170.375 209.636719 170.808594 209.902344 171.074219 C 212.476562 173.695312 216.199219 175.238281 220.046875 175.128906 Z M 220.039062 175.144531 " fill-opacity="1" fill-rule="nonzero"/><path fill="#ffffff" d="M 270.277344 155.253906 C 270.277344 155.558594 270.246094 155.859375 270.1875 156.160156 C 270.128906 156.457031 270.039062 156.75 269.921875 157.03125 C 269.804688 157.3125 269.664062 157.578125 269.492188 157.832031 C 269.324219 158.085938 269.132812 158.320312 268.914062 158.535156 C 268.699219 158.753906 268.464844 158.945312 268.210938 159.113281 C 267.957031 159.285156 267.691406 159.425781 267.40625 159.542969 C 267.125 159.660156 266.835938 159.746094 266.535156 159.808594 C 266.238281 159.867188 265.933594 159.894531 265.628906 159.894531 C 265.324219 159.894531 265.023438 159.867188 264.722656 159.808594 C 264.425781 159.746094 264.132812 159.660156 263.851562 159.542969 C 263.570312 159.425781 263.300781 159.28125 263.046875 159.113281 C 262.792969 158.945312 262.558594 158.753906 262.34375 158.535156 C 262.128906 158.320312 261.933594 158.085938 261.765625 157.832031 C 261.597656 157.578125 261.453125 157.3125 261.335938 157.03125 C 261.21875 156.75 261.132812 156.457031 261.070312 156.160156 C 261.011719 155.859375 260.984375 155.558594 260.984375 155.253906 C 260.984375 154.949219 261.011719 154.648438 261.070312 154.347656 C 261.132812 154.046875 261.21875 153.757812 261.335938 153.476562 C 261.453125 153.195312 261.597656 152.925781 261.765625 152.675781 C 261.933594 152.421875 262.128906 152.1875 262.34375 151.96875 C 262.558594 151.753906 262.792969 151.5625 263.046875 151.394531 C 263.300781 151.222656 263.570312 151.082031 263.851562 150.964844 C 264.132812 150.847656 264.425781 150.757812 264.722656 150.699219 C 265.023438 150.640625 265.324219 150.609375 265.628906 150.609375 C 265.933594 150.609375 266.238281 150.640625 266.535156 150.699219 C 266.835938 150.757812 267.125 150.847656 267.40625 150.964844 C 267.691406 151.082031 267.957031 151.222656 268.210938 151.394531 C 268.464844 151.5625 268.699219 151.753906 268.914062 151.96875 C 269.132812 152.1875 269.324219 152.421875 269.492188 152.675781 C 269.664062 152.925781 269.804688 153.195312 269.921875 153.476562 C 270.039062 153.757812 270.128906 154.046875 270.1875 154.347656 C 270.246094 154.648438 270.277344 154.949219 270.277344 155.253906 Z M 270.277344 155.253906 " fill-opacity="1" fill-rule="nonzero"/><path fill="#ffffff" d="M 195.371094 155.253906 C 195.371094 155.558594 195.34375 155.859375 195.285156 156.160156 C 195.222656 156.457031 195.136719 156.75 195.019531 157.03125 C 194.902344 157.3125 194.757812 157.578125 194.589844 157.832031 C 194.417969 158.085938 194.226562 158.320312 194.011719 158.535156 C 193.796875 158.753906 193.5625 158.945312 193.308594 159.113281 C 193.054688 159.285156 192.785156 159.425781 192.503906 159.542969 C 192.222656 159.660156 191.929688 159.746094 191.632812 159.808594 C 191.332031 159.867188 191.03125 159.894531 190.726562 159.894531 C 190.421875 159.894531 190.117188 159.867188 189.820312 159.808594 C 189.519531 159.746094 189.230469 159.660156 188.945312 159.542969 C 188.664062 159.425781 188.398438 159.28125 188.144531 159.113281 C 187.890625 158.945312 187.65625 158.753906 187.4375 158.535156 C 187.222656 158.320312 187.03125 158.085938 186.863281 157.832031 C 186.691406 157.578125 186.550781 157.3125 186.433594 157.03125 C 186.316406 156.75 186.226562 156.457031 186.167969 156.160156 C 186.109375 155.859375 186.078125 155.558594 186.078125 155.253906 C 186.078125 154.949219 186.109375 154.648438 186.167969 154.347656 C 186.226562 154.046875 186.316406 153.757812 186.433594 153.476562 C 186.550781 153.195312 186.691406 152.925781 186.863281 152.675781 C 187.03125 152.421875 187.222656 152.1875 187.4375 151.96875 C 187.65625 151.753906 187.890625 151.5625 188.144531 151.394531 C 188.398438 151.222656 188.664062 151.082031 188.945312 150.964844 C 189.230469 150.847656 189.519531 150.757812 189.820312 150.699219 C 190.117188 150.640625 190.421875 150.609375 190.726562 150.609375 C 191.03125 150.609375 191.332031 150.640625 191.632812 150.699219 C 191.929688 150.757812 192.222656 150.847656 192.503906 150.964844 C 192.785156 151.082031 193.054688 151.222656 193.308594 151.394531 C 193.5625 151.5625 193.796875 151.753906 194.011719 151.96875 C 194.226562 152.1875 194.417969 152.421875 194.589844 152.675781 C 194.757812 152.925781 194.902344 153.195312 195.019531 153.476562 C 195.136719 153.757812 195.222656 154.046875 195.285156 154.347656 C 195.34375 154.648438 195.371094 154.949219 195.371094 155.253906 Z M 195.371094 155.253906 " fill-opacity="1" fill-rule="nonzero"/></svg>